<svg width="245" height="61" viewBox="0 0 245 61" fill="none" xmlns="http://www.w3.org/2000/svg">
<g clip-path="url(#clip0_1490_71)">
<path fill-rule="evenodd" clip-rule="evenodd" d="M8.98343 37.8877C8.60267 37.3936 8.31536 36.8342 8.13565 36.2369C7.94769 35.6237 7.80121 35.0734 7.69621 34.586C7.70509 34.4212 7.65671 34.2583 7.55925 34.1251C7.4618 33.9919 7.32127 33.8964 7.16148 33.8549C6.25296 33.8532 5.35056 34.0037 4.49176 34.3002C3.65791 34.5831 2.88148 35.0132 2.19926 35.5699C1.51981 36.132 0.972731 36.8371 0.59704 37.6349C0.19123 38.4981 -0.012902 39.4423 9.56757e-05 40.396C-0.00171638 41.4891 0.256904 42.5669 0.75454 43.5402C1.2738 44.5579 2.01226 45.4478 2.91676 46.1458C3.95154 46.9359 5.12277 47.5291 6.37204 47.8958C7.87004 48.3385 9.42624 48.5528 10.9882 48.5316C13.6519 48.6494 16.2894 47.9631 18.5579 46.5619C20.4959 45.2599 22.0994 43.5192 23.2382 41.481C24.4383 39.3299 25.2964 37.005 25.7815 34.5899C26.2949 32.1443 26.6842 29.6743 26.9482 27.1894C27.1154 25.4108 27.2722 23.4204 27.4187 21.218C27.5652 19.0156 27.6806 16.9091 27.7648 14.8985C27.8478 12.888 27.9126 11.1198 27.9593 9.59408C28.0059 8.06834 28.0267 7.09612 28.0215 6.67742C28.0198 6.24018 27.9775 5.80405 27.8951 5.37464C27.7868 4.88997 27.5216 4.45459 27.1407 4.13603C26.5962 3.68491 25.9608 3.3566 25.2779 3.17353C24.1825 2.88259 23.0508 2.7516 21.9179 2.78464H18.4723C18.3201 2.75145 18.1615 2.76381 18.0163 2.82017C17.871 2.87653 17.7456 2.97441 17.6557 3.10158C17.5383 3.49385 17.4729 3.89981 17.4612 4.30908C17.2525 7.87131 17.0756 10.8703 16.9304 13.306C16.7852 15.7418 16.6594 17.7744 16.5532 19.4038C16.4482 21.0345 16.3542 22.3684 16.2712 23.4055C16.1882 24.4425 16.104 25.3421 16.0184 26.1044C15.8084 27.7986 15.5894 29.3976 15.3612 30.9013C15.1675 32.2476 14.8631 33.5756 14.4512 34.8719C14.1537 35.8594 13.6742 36.7826 13.0376 37.5941C12.7691 37.9238 12.4282 38.187 12.0414 38.3634C11.6546 38.5398 11.2323 38.6245 10.8073 38.611C10.4678 38.6431 10.1255 38.5943 9.80843 38.4686C9.49139 38.3429 9.20867 38.1438 8.98343 37.8877ZM33.7012 5.83353C33.6792 6.55427 33.637 7.62371 33.5748 9.04186C33.5126 10.46 33.3869 12.4213 33.1976 14.9258C33.0096 17.425 32.7504 20.7708 32.4198 24.963C32.2526 26.9956 32.0957 28.9329 31.9493 30.7749C31.8028 32.617 31.677 34.3021 31.572 35.8305C31.4619 37.351 31.3731 38.6616 31.3057 39.7621C31.2382 40.8627 31.2071 41.6884 31.2123 42.2394C31.1392 43.4864 31.4939 44.7211 32.2176 45.7394C32.9561 46.6344 33.9381 47.2963 35.0448 47.6449C36.4568 48.1032 37.9264 48.3599 39.4101 48.4071C41.1056 48.4914 42.9794 48.5335 45.0315 48.5335C48.8399 48.6719 52.6243 47.8762 56.0545 46.2158C58.8412 44.7796 61.2267 42.6727 62.9962 40.0849C64.7581 37.4367 65.9854 34.4696 66.609 31.3505C67.3029 28.0394 67.6503 24.6651 67.6454 21.2821C67.6968 18.3536 67.38 15.4302 66.7023 12.5808C66.1826 10.3672 65.0888 8.32973 63.5309 6.67353C61.9075 5.06964 59.8986 3.91052 57.6976 3.30769C54.7827 2.52416 51.7708 2.16077 48.7531 2.22853C47.3272 2.22853 45.3692 2.32381 42.879 2.51436C40.3888 2.70492 37.7191 2.80019 34.8698 2.80019C34.6333 2.80885 34.4043 2.88585 34.2106 3.02186C34.0913 3.10447 33.9924 3.21331 33.9217 3.34004C33.8509 3.46677 33.8101 3.60802 33.8023 3.75297C33.7556 4.42575 33.7219 5.11927 33.7012 5.83353ZM44.2226 38.4516C43.7196 38.4308 43.1544 38.3777 42.527 38.2921C42.6943 36.2595 42.8615 34.0468 43.0287 31.6538C43.1959 29.2608 43.3528 26.8893 43.4993 24.5391C43.6457 22.1889 43.7819 19.9444 43.9076 17.8055C44.0333 15.6666 44.1383 13.8148 44.2226 12.2502C45.2272 12.1659 46.0854 12.1011 46.797 12.0557C47.5087 12.0104 48.092 11.989 48.547 11.9916C49.8357 11.9512 51.1188 12.1783 52.3154 12.6585C53.2841 13.0727 54.105 13.7702 54.6701 14.6594C55.2839 15.6814 55.6897 16.8147 55.864 17.9941C56.1102 19.5372 56.226 21.0982 56.2101 22.6608C56.2021 24.425 56.0761 26.1867 55.8329 27.9341C55.6054 29.7179 55.0968 31.4544 54.3259 33.0791C53.5914 34.623 52.4784 35.9561 51.0904 36.9544C49.4256 38.0458 47.457 38.5796 45.469 38.4788C45.1397 38.4931 44.7243 38.4866 44.2226 38.4594V38.4516ZM88.694 48.1388C90.0703 47.9119 91.411 47.5059 92.682 46.9313C93.8014 46.4346 94.7973 45.6969 95.5987 44.771C96.3506 43.8862 96.7524 42.7567 96.7284 41.5958C96.7622 40.7867 96.5427 39.9873 96.1004 39.3091C95.7173 38.751 95.226 38.2756 94.6557 37.911C94.1656 37.595 93.623 37.3692 93.0534 37.2441C92.6923 37.1604 92.3248 37.107 91.9548 37.0846C91.7415 37.0782 91.5298 37.124 91.3383 37.2183C91.1468 37.3125 90.9813 37.4522 90.8562 37.6252C90.584 37.9856 90.2599 38.3881 89.884 38.8327C89.4626 39.3144 88.9638 39.7225 88.4081 40.0402C87.6228 40.4412 86.7454 40.6277 85.8648 40.5808C84.9117 40.6099 83.9651 40.414 83.1018 40.0091C82.3928 39.6649 81.7701 39.1658 81.2798 38.5488C80.8065 37.9325 80.4548 37.2317 80.2434 36.4838C80.0142 35.7106 79.8976 34.9084 79.8973 34.1019C80.5662 34.1019 81.519 34.0701 82.7557 34.0066C84.1162 33.9282 85.47 33.7586 86.8079 33.4991C88.3201 33.2146 89.8106 32.8247 91.2684 32.3324C92.7424 31.8421 94.1306 31.1243 95.3829 30.2052C96.6129 29.2948 97.6372 28.1353 98.389 26.8024C99.2056 25.2818 99.608 23.5732 99.5557 21.848C99.5652 20.5923 99.3525 19.3449 98.9276 18.1632C98.5047 17.0144 97.8173 15.9812 96.9209 15.1474C95.8693 14.2045 94.6263 13.5001 93.277 13.0824C91.4872 12.5334 89.6206 12.2761 87.749 12.3202C85.3536 12.2651 82.9686 12.6527 80.714 13.4635C78.8737 14.1498 77.1718 15.1615 75.6895 16.4502C74.343 17.637 73.2082 19.0441 72.3334 20.6113C71.5009 22.0923 70.8257 23.6564 70.319 25.278C69.8536 26.7689 69.5281 28.3 69.3468 29.8513C69.1931 31.1161 69.1094 32.3884 69.0959 33.6624C69.0131 36.126 69.4849 38.5768 70.4765 40.8335C71.2952 42.6086 72.509 44.1729 74.0251 45.4069C75.4676 46.5545 77.138 47.3817 78.9251 47.8335C80.7209 48.2958 82.5677 48.5303 84.422 48.5316C85.8538 48.5258 87.2824 48.397 88.692 48.1466L88.694 48.1388ZM88.0329 21.778C88.5443 22.4298 88.8186 23.2362 88.8107 24.0646C88.8067 24.8388 88.5753 25.5947 88.1453 26.2384C87.7152 26.8821 87.1054 27.3852 86.3918 27.6852C84.4197 28.613 82.2589 29.0696 80.0801 29.0191C80.2097 28.1298 80.388 27.1984 80.6148 26.2249C80.8285 25.2945 81.1667 24.3972 81.6201 23.5571C82.0292 22.7903 82.584 22.1106 83.2534 21.5563C83.9197 21.0215 84.7541 20.7404 85.6082 20.763C86.064 20.7265 86.5219 20.7995 86.9437 20.9761C87.3655 21.1527 87.739 21.4276 88.0329 21.778ZM110.301 12.9249C108.651 13.2986 107.085 13.9772 105.685 14.9258C104.2 15.9296 102.997 17.296 102.189 18.8954C101.381 20.4949 100.995 22.2742 101.068 24.0646C101 25.7429 101.345 27.4123 102.074 28.9258C102.694 30.1207 103.559 31.1721 104.611 32.0116C105.624 32.8122 106.745 33.4668 107.94 33.956C109.134 34.4434 110.244 34.8971 111.269 35.3171C112.167 35.6706 113.02 36.1274 113.812 36.6783C114.129 36.8923 114.387 37.1825 114.563 37.5222C114.739 37.862 114.826 38.2404 114.818 38.6227C114.85 39.0075 114.745 39.3914 114.521 39.7056C114.296 40.0199 113.967 40.2439 113.593 40.3377C112.686 40.607 111.744 40.7381 110.798 40.7266C109.676 40.7559 108.555 40.6249 107.47 40.3377C106.749 40.1286 106.045 39.8634 105.366 39.5444C104.8 39.2695 104.309 39.0051 103.89 38.751C103.474 38.4948 102.995 38.3601 102.507 38.3621C101.926 38.3465 101.358 38.5381 100.905 38.9027C100.459 39.271 100.077 39.7113 99.7754 40.2055C99.4683 40.6982 99.2357 41.2335 99.0851 41.7941C98.9526 42.2488 98.8788 42.7187 98.8654 43.1921C98.8691 43.7003 99.0005 44.1993 99.2475 44.6434C99.4946 45.0875 99.8492 45.4624 100.279 45.7335C101.341 46.4676 102.52 47.0153 103.765 47.3533C105.194 47.7653 106.654 48.0625 108.131 48.2419C109.474 48.4198 110.828 48.5153 112.183 48.5277C115.639 48.7927 119.068 47.752 121.794 45.611C122.842 44.6691 123.671 43.5101 124.224 42.2148C124.778 40.9196 125.042 39.5192 124.999 38.1113C125.067 36.4845 124.687 34.8703 123.9 33.4446C123.191 32.2631 122.253 31.2362 121.139 30.4249C120.028 29.6178 118.814 28.9638 117.528 28.4805C116.232 27.9944 115.028 27.518 113.915 27.0513C112.941 26.6596 112.014 26.1586 111.152 25.558C110.806 25.324 110.523 25.0065 110.331 24.6348C110.139 24.263 110.044 23.849 110.054 23.4308C110.052 23.0172 110.147 22.609 110.333 22.2393C110.518 21.8697 110.788 21.549 111.121 21.3035C111.936 20.6988 112.935 20.3957 113.948 20.446C114.657 20.4067 115.362 20.5606 115.99 20.8913C116.441 21.157 116.811 21.5418 117.058 22.0035C117.285 22.4402 117.434 22.9134 117.497 23.4016C117.556 23.8334 117.588 24.2685 117.592 24.7044C117.577 24.8381 117.598 24.9735 117.653 25.0964C117.708 25.2192 117.795 25.325 117.905 25.4024C118.282 25.5623 118.691 25.629 119.099 25.5969C120.884 25.7184 122.654 25.2008 124.093 24.1366C124.683 23.6038 125.146 22.944 125.445 22.2068C125.744 21.4695 125.872 20.674 125.819 19.8802C125.842 18.8434 125.627 17.8151 125.192 16.8739C124.757 15.9326 124.112 15.1033 123.307 14.4494C121.017 12.8478 118.24 12.0955 115.455 12.3221C113.72 12.3238 111.99 12.526 110.301 12.9249ZM136.551 47.8938C136.926 47.9405 137.305 47.85 137.618 47.6391C137.829 47.3425 137.939 46.986 137.931 46.6221C138.308 42.0488 138.623 38.1424 138.874 34.903C139.126 31.6635 139.325 28.9536 139.471 26.7733C139.618 24.5929 139.733 22.8675 139.817 21.5971C139.902 20.3268 139.944 19.374 139.944 18.7388C139.953 17.9257 139.858 17.1148 139.662 16.3258C139.489 15.6362 139.143 15.0023 138.656 14.4844C138.118 13.942 137.448 13.5481 136.712 13.341C135.68 13.0567 134.611 12.9257 133.541 12.9521H131.091C130.743 12.907 130.391 12.9752 130.085 13.1466C129.836 13.6594 129.728 14.229 129.77 14.7974C129.436 19.4511 129.151 23.3575 128.917 26.5166C128.682 29.6757 128.488 32.2806 128.333 34.3313C128.166 36.3859 128.051 37.9953 127.987 39.1594C127.924 40.3234 127.893 41.2231 127.894 41.8583C127.881 42.7241 127.976 43.5882 128.176 44.4308C128.343 45.1322 128.689 45.7782 129.181 46.3052C129.724 46.8476 130.392 47.2482 131.126 47.4719C132.154 47.7766 133.225 47.9158 134.297 47.8841H136.558L136.551 47.8938ZM134.923 9.52797C136.743 9.65764 138.546 9.10288 139.979 7.97242C140.535 7.48759 140.978 6.88637 141.277 6.21133C141.575 5.53628 141.721 4.8039 141.705 4.06603C141.729 3.51359 141.632 2.96267 141.42 2.45182C141.208 1.94096 140.888 1.48251 140.48 1.10853C139.351 0.27119 137.955 -0.123142 136.555 0.000194274C134.802 -0.0928477 133.071 0.423058 131.655 1.46047C131.058 1.93741 130.582 2.54828 130.265 3.24354C129.949 3.9388 129.8 4.69888 129.833 5.46214C129.833 8.1727 131.531 9.52797 134.923 9.52797ZM161.838 49.2588C161.271 50.2786 160.42 51.1123 159.389 51.6589C158.358 52.2055 157.191 52.4416 156.028 52.3388C154.821 52.415 153.614 52.1968 152.511 51.703C151.84 51.3445 151.246 50.8591 150.761 50.2738L149.631 48.8446C149.437 48.6231 149.194 48.4501 148.921 48.3397C148.648 48.2292 148.353 48.1844 148.06 48.2088C147.432 48.2151 146.808 48.3113 146.207 48.4946C145.567 48.6804 144.962 48.9701 144.416 49.3521C143.872 49.7328 143.421 50.2321 143.098 50.8124C142.75 51.4553 142.577 52.178 142.596 52.9085C142.615 53.8609 142.91 54.7874 143.444 55.5763C144.087 56.5417 144.934 57.3547 145.925 57.9583C147.198 58.734 148.587 59.3024 150.039 59.6421C151.939 60.093 153.887 60.3065 155.84 60.278C158.354 60.3336 160.863 60.0125 163.283 59.3252C165.094 58.8011 166.789 57.9366 168.276 56.778C169.516 55.788 170.541 54.5562 171.29 53.1574C171.988 51.8384 172.496 50.4269 172.797 48.9652C173.09 47.5263 173.362 45.8534 173.614 43.9466C173.865 42.0397 174.095 40.0493 174.304 37.9752C174.513 35.9011 174.701 33.8368 174.87 31.7821C175.038 29.7275 175.174 27.8537 175.278 26.1608C175.382 24.4678 175.455 23.0172 175.498 21.8091C175.541 20.6009 175.561 19.8283 175.56 19.4913C175.668 18.5738 175.594 17.6439 175.34 16.7555C175.087 15.867 174.66 15.0376 174.084 14.3152C172.727 13.2882 171.037 12.803 169.342 12.9541H166.445C166.348 12.9363 166.25 12.9391 166.155 12.9623C166.06 12.9854 165.971 13.0285 165.893 13.0886C165.816 13.1486 165.753 13.2244 165.707 13.3108C165.661 13.3972 165.634 13.4923 165.628 13.5899C165.628 13.7195 165.617 14.0054 165.597 14.4474C165.576 14.8895 165.545 15.3432 165.503 15.8085C165.461 16.2752 165.429 16.6881 165.408 17.0471C165.387 17.4069 165.377 17.5663 165.377 17.5235C165.169 16.8075 164.863 16.1237 164.467 15.4916C164.059 14.8463 163.528 14.2869 162.906 13.8446C162.194 13.3494 161.405 12.9738 160.572 12.7324C159.52 12.4373 158.43 12.2984 157.337 12.3202C154.736 12.2117 152.161 12.863 149.925 14.1946C148.052 15.3878 146.491 17.0103 145.371 18.9274C144.249 20.8643 143.473 22.9817 143.078 25.1846C142.673 27.3103 142.462 29.4685 142.45 31.6324C142.406 33.8121 142.692 35.9859 143.298 38.0802C143.776 39.7133 144.577 41.234 145.653 42.5524C146.626 43.7159 147.88 44.612 149.296 45.156C150.802 45.7217 152.4 46.0019 154.008 45.9824C155.981 46.0558 157.937 45.5849 159.66 44.6213C161.29 43.579 162.613 42.1212 163.493 40.398C163.66 43.4415 163.092 46.4807 161.838 49.2588ZM154.583 35.9724C153.771 34.5336 153.4 32.8878 153.516 31.2396C153.536 30.3373 153.601 29.4366 153.71 28.5408C153.843 27.3428 154.128 26.1667 154.558 25.0408C154.982 23.9055 155.655 22.8797 156.528 22.0385C157.022 21.5976 157.598 21.2586 158.223 21.0407C158.849 20.8228 159.511 20.7304 160.172 20.7688C160.842 20.7253 161.512 20.8508 162.122 21.1338C162.731 21.4168 163.259 21.8483 163.658 22.3885C164.574 24.0443 164.979 25.9337 164.825 27.8194C164.813 28.775 164.748 29.7293 164.63 30.6777C164.506 31.7756 164.209 32.8471 163.751 33.853C163.299 34.8596 162.624 35.7505 161.778 36.4585C160.761 37.2295 159.503 37.6122 158.229 37.5377C157.539 37.6071 156.842 37.4999 156.204 37.2261C155.566 36.9523 155.009 36.5209 154.583 35.9724ZM200.278 44.6835C200.442 45.3423 200.778 45.9459 201.25 46.4335C201.798 46.9495 202.467 47.3205 203.195 47.5127C204.259 47.7977 205.359 47.9287 206.461 47.9016H208.472C208.951 47.9584 209.436 47.8581 209.854 47.6158C210.139 47.1036 210.249 46.5123 210.167 45.9319C210.167 45.5935 210.208 44.8955 210.294 43.8358C210.379 42.776 210.488 41.5491 210.607 40.151C210.725 38.753 210.869 37.2344 211.015 35.6088C211.161 33.9832 211.299 32.4121 211.423 30.9091C211.548 29.406 211.653 28.0196 211.738 26.748C211.824 25.4763 211.863 24.5041 211.863 23.8313C211.903 22.0008 211.691 20.1736 211.235 18.4005C210.891 17.0784 210.234 15.8585 209.32 14.8441C208.436 13.9158 207.318 13.2439 206.084 12.8996C204.59 12.493 203.047 12.3005 201.499 12.328C199.331 12.254 197.178 12.7008 195.218 13.6308C193.317 14.7288 191.769 16.3481 190.758 18.2974C190.715 17.6175 190.588 16.9455 190.381 16.2966C190.174 15.6458 189.809 15.057 189.317 14.5835C188.747 14.0596 188.072 13.6621 187.338 13.4169C186.334 13.092 185.281 12.9414 184.226 12.9716H181.776C181.429 12.9263 181.077 12.9945 180.771 13.166C180.522 13.6788 180.413 14.2484 180.456 14.8169C180.12 19.4757 179.838 23.3821 179.608 26.536C179.379 29.6899 179.18 32.2942 179.011 34.3488C178.843 36.4034 178.728 38.0128 178.665 39.1769C178.603 40.3409 178.571 41.2406 178.57 41.8758C178.558 42.7416 178.652 43.6057 178.852 44.4482C179.019 45.1497 179.365 45.7957 179.857 46.3227C180.4 46.8655 181.068 47.2663 181.802 47.4894C182.83 47.7941 183.901 47.9333 184.973 47.9016H187.25C187.625 47.9492 188.005 47.8586 188.318 47.6469C188.529 47.3506 188.64 46.9939 188.633 46.6299C189.01 41.3799 189.408 37.0814 189.826 33.7344C190.103 31.0629 190.64 28.4248 191.429 25.8574C191.832 24.3364 192.673 22.9672 193.848 21.9199C194.911 21.1694 196.191 20.7902 197.491 20.8408C198.069 20.7668 198.656 20.8486 199.192 21.0777C199.728 21.3067 200.193 21.6747 200.538 22.1435C201.066 23.0372 201.335 24.0596 201.316 25.0971C201.316 26.1562 201.243 27.4687 201.096 29.0346C200.95 30.6006 200.804 32.2209 200.657 33.8958C200.509 35.5693 200.363 37.1572 200.218 38.6596C200.072 40.162 199.999 41.3793 199.998 42.3113C199.987 43.1109 200.081 43.9084 200.278 44.6835ZM232.585 1.98353C231.61 1.71394 230.603 1.57917 229.592 1.58297H229.023C228.831 1.58285 228.641 1.59454 228.451 1.61797C227.226 1.74295 226.016 1.98251 224.836 2.33353C223.516 2.70635 222.227 3.17892 220.978 3.74714C219.856 4.24802 218.784 4.85553 217.778 5.56131C217.019 6.02609 216.43 6.72383 216.1 7.55047C216.039 7.71166 216.014 7.8839 216.026 8.05562C216.038 8.22734 216.086 8.39456 216.168 8.54603C216.24 8.6733 216.347 8.77805 216.475 8.84874C216.603 8.91942 216.749 8.95328 216.895 8.94658C217.173 8.93793 217.44 8.83971 217.657 8.66658C218.141 8.29872 218.656 7.97343 219.195 7.69436C219.806 7.36899 220.44 7.06631 221.099 6.78631C221.757 6.50631 222.406 6.26195 223.043 6.05325C223.692 5.84325 224.234 5.68056 224.671 5.56519C224.737 5.54247 224.807 5.53065 224.877 5.53019C224.902 5.53106 224.926 5.53789 224.947 5.55008C224.968 5.56228 224.986 5.57947 225 5.60019C225.063 5.71153 225.115 5.82875 225.155 5.95019C225.716 7.42203 226.189 8.92577 226.573 10.4535C226.978 12.004 227.187 13.5993 227.195 15.2019C227.193 16.0981 226.986 16.9819 226.59 17.786C226.175 18.5821 225.631 19.3047 224.982 19.9249C224.33 20.5406 223.623 21.0957 222.87 21.5835C222.174 22.0384 221.446 22.4414 220.691 22.7891C220.047 23.0883 219.382 23.3391 218.701 23.5396C218.202 23.6963 217.684 23.7846 217.161 23.8021C216.997 23.8372 216.827 23.8264 216.668 23.7708C216.51 23.7153 216.369 23.6171 216.263 23.4871C216.222 23.3569 216.212 23.2191 216.233 23.0842C216.254 22.9493 216.305 22.821 216.384 22.7094C217.119 21.3171 225.911 9.55519 234.714 12.5205C236.364 13.0067 237.802 14.0341 238.797 15.4371C239.504 16.4965 239.923 17.7217 240.012 18.9921C240.102 20.2625 239.858 21.5343 239.307 22.6821C238.45 24.2774 237.048 25.5103 235.356 26.1549C233.642 26.8446 231.756 26.9806 229.962 26.5438C228.381 26.0552 226.892 25.3075 225.556 24.331C226.344 25.8892 227.505 27.2286 228.936 28.2306C230.366 29.2326 232.022 29.8661 233.755 30.0749C235.378 30.1915 237.006 29.9221 238.505 29.2887C240.004 28.6554 241.331 27.6761 242.379 26.431C243.451 25.1923 244.227 23.7252 244.647 22.1416C245.066 20.5579 245.119 18.8994 244.802 17.2921C244.431 15.7066 243.723 14.2196 242.726 12.9324C241.729 11.6452 240.466 10.5882 239.023 9.83325C232.056 6.04353 223.178 10.9455 218.76 15.1921C215.629 18.2021 212.701 22.7502 213.831 25.208C214.02 25.6131 214.29 25.9761 214.622 26.2755C215.361 26.8778 216.299 27.1828 217.251 27.131C218.27 27.1186 219.28 26.9419 220.243 26.608C221.301 26.2558 222.321 25.7998 223.288 25.2469C224.263 24.692 225.189 24.0552 226.055 23.3433C226.844 22.7134 227.558 21.9958 228.185 21.2044C229.003 20.176 229.609 18.9948 229.966 17.7296C230.279 16.5289 230.379 15.2822 230.259 14.0469C230.145 12.8016 229.919 11.5691 229.585 10.3641C229.322 9.42157 229.004 8.4951 228.634 7.58936C228.382 6.96735 228.093 6.36091 227.768 5.77325C227.606 5.5316 227.476 5.27023 227.38 4.99547C227.717 4.88915 228.065 4.81876 228.418 4.78547C229.126 4.68685 229.841 4.64006 230.557 4.64547C231.2 4.64539 231.843 4.69807 232.478 4.80297C233.048 4.88638 233.595 5.08485 234.086 5.38631C233.956 5.56014 233.835 5.74056 233.724 5.92686C233.67 6.01399 233.64 6.11378 233.637 6.21618C233.634 6.31858 233.658 6.41999 233.707 6.51019C233.76 6.60652 233.842 6.68463 233.94 6.73451C234.038 6.78439 234.15 6.80378 234.259 6.79019C234.597 6.74751 234.916 6.60846 235.177 6.38964C235.446 6.17225 235.647 5.88261 235.758 5.55472C235.868 5.22683 235.882 4.87431 235.799 4.53853C235.693 4.11094 235.457 3.72658 235.124 3.43797C234.41 2.75192 233.538 2.25238 232.585 1.98353Z"/>
</g>
<defs>
<clipPath id="clip0_1490_71">
<rect width="245" height="60.2778" fill="white"/>
</clipPath>
</defs>
</svg>
